<?xml version="1.0" standalone="no"?>
<!DOCTYPE svg PUBLIC "-//W3C//DTD SVG 1.1//EN" "http://www.w3.org/Graphics/SVG/1.1/DTD/svg11.dtd" >
<svg xmlns="http://www.w3.org/2000/svg">
<metadata></metadata>
<defs>
<font id="nexa_black_italicregular" horiz-adv-x="1046" >
<font-face units-per-em="2048" ascent="1536" descent="-512" />
<missing-glyph horiz-adv-x="473" />
<glyph horiz-adv-x="0" />
<glyph horiz-adv-x="682" />
<glyph unicode=" "  horiz-adv-x="473" />
<glyph unicode="&#x09;" horiz-adv-x="473" />
<glyph unicode="&#xa0;" horiz-adv-x="473" />
<glyph unicode="!" horiz-adv-x="661" d="M37 160q0 90 69.5 160.5t184.5 70.5q90 0 138 -48.5t48 -119.5q0 -90 -70.5 -161.5t-187.5 -71.5q-89 0 -135.5 49.5t-46.5 120.5zM117 471l164 963h397l-178 -963h-383z" />
<glyph unicode="&#x22;" horiz-adv-x="966" d="M160 877l112 559h308l-113 -559h-307zM580 877l112 559h307l-112 -559h-307z" />
<glyph unicode="#" horiz-adv-x="1525" d="M20 264l52 291h213l125 299h-152l49 287h223l123 293h344l-127 -293h191l125 293h348l-127 -293h131l-49 -289h-203l-131 -297h148l-52 -291h-213l-110 -264h-346l110 264h-188l-113 -264h-342l111 264h-140zM618 543h191l139 327h-190z" />
<glyph unicode="$" horiz-adv-x="1409" d="M-6 211l268 256q138 -162 391 -162q109 0 179.5 38t70.5 101q0 47 -56 78t-163 41q-54 5 -100.5 12.5t-93 19t-84.5 26.5t-72.5 36t-60 46.5t-44.5 59t-28 73t-8.5 88t12.5 104.5q25 117 98 205.5t172.5 139.5t222.5 73l33 186h344l-31 -182q206 -31 345 -158l-246 -256 q-115 99 -318 99q-89 0 -153 -32t-64 -97q0 -54 44 -73.5t151 -31.5q80 -9 150.5 -26t137 -49.5t114 -76t76 -108.5t28.5 -145q0 -113 -44 -205.5t-121.5 -155t-173.5 -103t-210 -59.5h2l-37 -198h-344l35 192q-132 16 -233 72t-189 172z" />
<glyph unicode="%" horiz-adv-x="1851" d="M154 1055q0 73 28 143t80 127.5t136.5 93t187.5 35.5q79 0 140.5 -24t97.5 -65t54.5 -91.5t18.5 -108.5q0 -74 -27.5 -143.5t-79.5 -127t-136.5 -92t-188.5 -34.5q-79 0 -140.5 23.5t-97.5 64t-54.5 91t-18.5 108.5zM156 0l1198 1432h368l-1192 -1432h-374zM426 1096 q0 -32 21 -54t61 -22q55 0 85 31.5t30 72.5q0 32 -21 54t-61 22q-52 0 -83.5 -32t-31.5 -72zM991 270q0 73 28 143t80.5 128t136.5 93.5t187 35.5q80 0 141.5 -24t98 -65t54.5 -91.5t18 -108.5q0 -74 -27.5 -143.5t-79.5 -127t-136.5 -92t-188.5 -34.5q-155 0 -233.5 82 t-78.5 204zM1266 311q0 -32 21 -53.5t61 -21.5q54 0 83 31.5t29 72.5q0 32 -20.5 54t-61.5 22q-52 0 -82 -32t-30 -73z" />
<glyph unicode="&#x26;" horiz-adv-x="1521" d="M44.5 299.5q-1.5 53.5 8.5 118.5q14 83 86.5 171.5t175.5 141.5q-67 43 -94 124t-16 169q12 98 62 176t119 125.5t157.5 79t171.5 43.5t168 12q90 0 166 -14t143 -46t108 -83t60 -124.5t0 -172.5h-369q1 63 -43 91t-112 28q-85 0 -146.5 -35.5t-68.5 -95.5 q-9 -58 23.5 -98t115.5 -40h713l-52 -286h-145l-19 -111q-11 -61 24.5 -97t107.5 -24l-62 -354q-55 -10 -103.5 -10t-97.5 13.5t-83.5 51.5t-47.5 99q-99 -88 -212.5 -131.5t-258.5 -43.5q-53 0 -101.5 5t-96.5 15.5t-87.5 28t-75.5 42.5t-60 58.5t-40.5 76.5t-18 96.5z M457 440q-13 -69 38.5 -103t135.5 -34q95 0 171.5 48t90.5 130l18 97h-219q-39 0 -73.5 -6t-70 -20t-60 -42.5t-31.5 -69.5z" />
<glyph unicode="'" horiz-adv-x="546" d="M166 877l98 559h307l-98 -559h-307z" />
<glyph unicode="(" horiz-adv-x="772" d="M51 461q0 184 51.5 357.5t145.5 321t220.5 271.5t281.5 221l157 -200q-188 -133 -320.5 -340t-174.5 -441q-39 -219 15 -430.5t185 -337.5l-198 -217q-179 135 -271 343t-92 452z" />
<glyph unicode=")" horiz-adv-x="772" d="M-96 -117q214 153 350.5 406t136.5 512q0 188 -62.5 357t-172.5 274l209 200q170 -138 269 -356t99 -463q0 -341 -180 -640.5t-526 -506.5z" />
<glyph unicode="*" horiz-adv-x="890" d="M164 1098l119 241l161 -69l17 176h272l-59 -178l198 78l27 -248l-184 -33l102 -117l-246 -162l-65 160l-121 -162l-199 142l152 135z" />
<glyph unicode="+" horiz-adv-x="1060" d="M63 506l56 313h278l47 271h338l-47 -271h281l-55 -313h-281l-47 -273h-338l47 273h-279z" />
<glyph unicode="," horiz-adv-x="563" d="M6 98q0 90 70 142.5t162 52.5q66 0 110.5 -36.5t44.5 -102.5q0 -56 -43.5 -145t-138.5 -230h-197l80 211q-88 16 -88 108z" />
<glyph unicode="-" d="M82 444l53 299h823l-53 -299h-823z" />
<glyph unicode="." horiz-adv-x="577" d="M8 141q0 82 65.5 147.5t172.5 65.5q85 0 130.5 -43t45.5 -108q0 -83 -65.5 -151t-176.5 -68q-83 0 -127.5 45t-44.5 112z" />
<glyph unicode="/" horiz-adv-x="1114" d="M-74 -158l938 1698h355l-943 -1698h-350z" />
<glyph unicode="0" horiz-adv-x="1490" d="M84.5 397.5q-6.5 93.5 11.5 210.5l35 197q25 136 78.5 246t126.5 184t165 123.5t191 71.5t207 22q137 0 245 -37.5t184.5 -116.5t102.5 -201.5t-1 -291.5l-33 -195q-24 -134 -77 -243.5t-125 -184t-163 -125t-188.5 -73.5t-202.5 -23q-87 0 -164 15.5t-146.5 48t-120 84 t-85 123.5t-41 165.5zM494 608q-27 -158 28 -236.5t168 -78.5q114 0 198.5 79t110.5 236l35 195q27 152 -27.5 229.5t-166.5 77.5q-114 0 -199 -76.5t-113 -230.5z" />
<glyph unicode="1" horiz-adv-x="968" d="M-6 0l53 305h229l121 682l-227 -63l55 317l637 217l-205 -1153h213l-53 -305h-823z" />
<glyph unicode="2" horiz-adv-x="1415" d="M-14 0l59 334q89 512 711 512q36 0 72.5 8.5t73.5 26.5t60 53t23 82q0 59 -49.5 88t-122.5 29q-192 0 -235 -152h-396q22 121 87.5 214t159.5 148.5t205 83t234 27.5q149 0 265 -41.5t187 -130.5t71 -215q0 -116 -34.5 -207.5t-96 -153.5t-149 -103t-190 -59t-223.5 -18 q-35 0 -63 -3t-63.5 -13.5t-61 -29.5t-47 -53.5t-29.5 -82.5h823l-61 -344h-1210z" />
<glyph unicode="3" horiz-adv-x="1425" d="M53 473h398q-7 -47 7.5 -81t45.5 -53.5t70.5 -28.5t87.5 -9q89 0 157 43.5t68 120.5q0 20 -6.5 38t-23 39t-53.5 33.5t-91 12.5h-260l49 286h241q34 0 66 5t66.5 17t58.5 37t31 60q11 54 -37.5 92.5t-139.5 38.5q-89 0 -155.5 -35t-79.5 -106h-389q20 102 70.5 184 t118 135.5t152 89.5t169.5 51t174 15q99 0 190 -21.5t169.5 -65t125.5 -120.5t47 -178q0 -111 -68 -204t-177 -136q90 -36 132 -104t42 -154q0 -109 -46.5 -197t-121 -143.5t-172 -93t-193.5 -53t-192 -15.5q-90 0 -173 16t-158 54t-126 94t-72.5 142.5t-1.5 193.5z" />
<glyph unicode="4" horiz-adv-x="1421" d="M4 248l33 336l913 850h375l-151 -867h153l-57 -319h-154l-43 -248h-381l43 248h-731zM453 567h340l65 375z" />
<glyph unicode="5" horiz-adv-x="1361" d="M72 475h395q-14 -83 40 -125.5t132 -42.5q27 0 58 6.5t67.5 21.5t64 47t35.5 77q8 40 -1 69.5t-27.5 45.5t-46.5 25.5t-51 12t-50 2.5h-567l145 818h1090l-60 -330h-714l-29 -170h192q55 0 103 -3.5t97 -11.5t89 -21.5t78.5 -33.5t65.5 -46.5t49.5 -61.5t32 -79t12 -98 t-11.5 -118q-18 -102 -68.5 -184.5t-118 -136t-152 -89.5t-167.5 -51.5t-168 -15.5q-133 0 -234 26.5t-173.5 83.5t-100.5 154t-6 229z" />
<glyph unicode="6" horiz-adv-x="1449" d="M90 473l86 498q17 99 66 181t117.5 138t155.5 94.5t179 56t189 17.5q101 0 185 -13.5t156.5 -46t118.5 -82t64.5 -125.5t1.5 -173h-387q6 62 -48 93.5t-145 31.5t-166.5 -46.5t-89.5 -125.5l-24 -135q69 45 165.5 71.5t184.5 26.5q207 0 331 -101t124 -286 q0 -118 -41.5 -215t-110.5 -162t-162.5 -110t-195 -65t-209.5 -20q-95 0 -181 17.5t-161.5 56.5t-126.5 95.5t-72.5 141t-3.5 187.5zM487 453q0 -61 53.5 -103.5t151.5 -42.5q106 0 180 51t74 138q0 70 -51 108.5t-141 38.5q-126 0 -196.5 -55t-70.5 -135z" />
<glyph unicode="7" horiz-adv-x="1216" d="M37 0l737 1102h-629l60 334h1130l-22 -183l-838 -1253h-438z" />
<glyph unicode="8" horiz-adv-x="1480" d="M51 288.5q-7 69.5 8 157.5q13 70 77.5 159t166.5 138q-102 83 -102 236t92 264.5t242.5 166t338.5 54.5q159 0 284 -41t201.5 -128t76.5 -208q0 -104 -54.5 -189t-152.5 -140q75 -45 106 -119.5t31 -149.5q0 -109 -37.5 -197t-104 -147.5t-160.5 -99.5t-202.5 -58 t-234.5 -18q-95 0 -175.5 11t-152 34.5t-122 61t-85 90.5t-41.5 122.5zM477 428q0 -62 58.5 -97.5t148.5 -35.5q96 0 170 38.5t84 110.5q12 69 -41 111.5t-158 42.5q-116 0 -189 -46t-73 -124zM608 959q18 -67 102 -88q30 -7 66 -7q124 0 189 75q52 59 35 123 q-18 66 -101 87q-31 8 -68 8q-124 0 -189 -75q-51 -59 -34 -123z" />
<glyph unicode="9" horiz-adv-x="1454" d="M72 416h387q-6 -62 47.5 -93.5t144.5 -31.5q93 0 175 49t98 135l20 123q-81 -57 -165 -77.5t-183 -20.5q-207 0 -331 101t-124 286q0 118 41.5 215t111 162t163 109.5t195 64.5t208.5 20q95 0 181 -17.5t161.5 -56t126.5 -95t72.5 -141t3.5 -187.5l-84 -484 q-18 -105 -69 -190.5t-121.5 -142.5t-159 -95.5t-181.5 -56t-190 -17.5q-128 0 -228.5 23t-178 72.5t-110 137.5t-11.5 208zM549 938q0 -70 51 -108.5t141 -38.5q126 0 196.5 55t70.5 135q0 61 -53.5 103t-151.5 42q-106 0 -180 -50.5t-74 -137.5z" />
<glyph unicode=":" horiz-adv-x="647" d="M39 141q0 98 71.5 154.5t165.5 56.5q74 0 126.5 -41t52.5 -114q0 -96 -74.5 -152.5t-167.5 -56.5q-73 0 -123.5 40.5t-50.5 112.5zM137 696q0 98 72 153.5t166 55.5q74 0 126 -40t52 -113q0 -97 -74 -153t-168 -56q-73 0 -123.5 40t-50.5 113z" />
<glyph unicode=";" horiz-adv-x="604" d="M25 98q0 90 69.5 142.5t161.5 52.5q67 0 111.5 -36.5t44.5 -102.5q0 -56 -44 -144.5t-139 -230.5h-196l80 211q-88 16 -88 108zM129 698q0 91 67 143t154 52q69 0 117.5 -37t48.5 -104q0 -92 -68.5 -144.5t-156.5 -52.5q-69 0 -115.5 37t-46.5 106z" />
<glyph unicode="&#x3c;" horiz-adv-x="903" d="M68 623l4 24l592 506l190 -240l-346 -280l246 -279l-279 -239z" />
<glyph unicode="=" horiz-adv-x="1142" d="M63 260l52 295h895l-52 -295h-895zM141 698l52 297h894l-51 -297h-895z" />
<glyph unicode="&#x3e;" horiz-adv-x="911" d="M63 336l359 297l-258 299l278 229l412 -512l-4 -28l-594 -512z" />
<glyph unicode="?" horiz-adv-x="1234" d="M135 971q9 114 65 207t142.5 151.5t191 89.5t216.5 31q90 0 169 -16t145.5 -51t110.5 -86t61.5 -126t0.5 -167q-11 -60 -40.5 -108.5t-68.5 -81.5t-84 -61.5t-90 -55.5t-84 -57t-68 -73t-40 -96h-397q22 95 56 165t86 117t85 68.5t97 55.5q7 4 11 6q57 31 85 57.5 t34 58.5q11 51 -21.5 87t-105.5 36q-171 0 -196 -151h-361zM317 239q37 91 127 130q50 22 109 22q123 0 168 -86q39 -73 2 -162q-37 -90 -127 -130q-52 -23 -113 -23q-121 0 -165 86q-38 74 -1 163z" />
<glyph unicode="@" horiz-adv-x="1912" d="M61 354q0 154 43.5 292.5t118.5 244.5t176 191.5t216.5 140t238.5 83.5t244 29q161 0 293.5 -39.5t232 -119t154.5 -208t55 -296.5q0 -307 -144.5 -499.5t-365.5 -192.5q-65 0 -116 36.5t-62 124.5q-62 -80 -142.5 -113.5t-187.5 -33.5q-189 0 -298 106.5t-109 298.5 q0 114 34.5 212.5t92.5 168t133.5 119.5t157.5 74t165 24q95 0 165 -36t93 -97l31 101l213 -35l-115 -658q-5 -23 2 -37.5t15.5 -18t15.5 -3.5q80 0 136.5 124.5t56.5 309.5q0 245 -140 358t-405 113q-111 0 -220 -32t-205.5 -96t-170.5 -151t-117 -205.5t-43 -250.5 q0 -126 42 -222t116.5 -152.5t168.5 -84.5t206 -28q152 0 272 65l59 -186q-182 -97 -376 -97q-115 0 -220 24.5t-198.5 78t-162.5 131.5t-109 191.5t-40 250.5zM698 459q0 -85 49.5 -142t147.5 -57q129 0 207 86t78 205q0 85 -51 138.5t-150 53.5q-88 0 -154 -44 t-96.5 -107.5t-30.5 -132.5z" />
<glyph unicode="A" horiz-adv-x="1636" d="M-131 0l895 1434h410l389 -1434h-422l-54 236h-641l-135 -236h-442zM645 575h367l-103 447z" />
<glyph unicode="B" horiz-adv-x="1517" d="M41 0l252 1434h725q133 0 236 -36t166 -114t63 -190q0 -30 -4 -60t-17.5 -70.5t-36 -75.5t-62.5 -72t-93 -64q72 -42 108.5 -117.5t36.5 -159.5q0 -104 -38.5 -187t-101 -135.5t-147 -87.5t-170.5 -49.5t-178 -15.5h-739zM496 315h342q86 0 132 44.5t46 113.5 q0 51 -33.5 83t-95.5 32h-342zM596 887h324q70 0 109.5 34.5t39.5 90.5q0 42 -27 68t-79 26h-328z" />
<glyph unicode="C" horiz-adv-x="1447" d="M72 573q0 107 27.5 213.5t79.5 206.5t133 186t181.5 150t232 100.5t278.5 36.5q320 0 516 -229l-293 -246q-110 125 -285 125q-90 0 -167.5 -30t-131 -79.5t-91.5 -113t-55.5 -129t-17.5 -129.5t17 -120t53 -104t101 -76t151 -28q80 0 178.5 36.5t183.5 109.5l191 -267 q-265 -223 -615 -223q-141 0 -254.5 32.5t-189.5 88t-127 134t-73.5 166.5t-22.5 189z" />
<glyph unicode="D" horiz-adv-x="1587" d="M41 0l252 1434h614q161 0 285 -44t200.5 -123.5t115 -184t38.5 -230.5q0 -132 -35 -256t-108 -232.5t-177 -189t-251 -127.5t-320 -47h-614zM502 342h213q90 0 163.5 28.5t121.5 75t80.5 108t46.5 124.5t14 127q0 129 -72.5 210t-220.5 81h-213z" />
<glyph unicode="E" horiz-adv-x="1363" d="M41 0l252 1434h1091l-59 -340h-692l-35 -205h651l-59 -330h-651l-39 -217h747l-59 -342h-1147z" />
<glyph unicode="F" horiz-adv-x="1296" d="M41 0l252 1434h1077l-59 -340h-676l-47 -269h633l-60 -331h-633l-86 -494h-401z" />
<glyph unicode="G" horiz-adv-x="1550" d="M72 582q0 107 27 214t79 207t132.5 185.5t181.5 149.5t233.5 100.5t280.5 36.5q160 0 287.5 -51t234.5 -181l-271 -227q-107 119 -313 119q-208 0 -335 -131t-142 -365q-1 -11 -1 -22q0 -51 15 -99q18 -58 57 -107t106.5 -78.5t154.5 -29.5q173 0 288 74l33 184h-362 l55 318h700l-112 -637q-88 -133 -270.5 -207t-395.5 -74q-141 0 -254.5 34t-188.5 92.5t-125.5 138.5t-72.5 168.5t-22 187.5z" />
<glyph unicode="H" horiz-adv-x="1615" d="M41 -2l252 1434h405l-94 -545h516l94 545h402l-252 -1434h-401l96 543h-516l-97 -543h-405z" />
<glyph unicode="I" horiz-adv-x="696" d="M41 0l252 1434h403l-252 -1434h-403z" />
<glyph unicode="J" horiz-adv-x="1488" d="M27 618h395q-7 -44 -7 -82q0 -91 43 -142q60 -72 175 -72q129 0 213 77t110 222l84 473h-381l60 340h786l-143 -816q-20 -116 -59 -212.5t-103 -178.5t-150 -138.5t-204 -88t-262 -31.5q-320 0 -468 161q-105 115 -105 316q0 79 16 172z" />
<glyph unicode="K" horiz-adv-x="1439" d="M41 0l252 1434h405l-82 -463q43 44 208.5 209.5t250.5 253.5h486l-5 -25l-700 -698q32 -44 222.5 -298t283.5 -388l-4 -25h-492l-182 258l-145 252l-93 -510h-405z" />
<glyph unicode="L" horiz-adv-x="1265" d="M41 0l252 1434h405l-190 -1090h686l-61 -344h-1092z" />
<glyph unicode="M" horiz-adv-x="1892" d="M41 0l252 1434h422l286 -486l467 486h424l-252 -1434h-401l156 877l-189 -203l-260 -254h-72l-155 237l-129 220l-148 -877h-401z" />
<glyph unicode="N" horiz-adv-x="1638" d="M41 0l252 1434h344l469 -805q26 224 39 313l86 492h407l-252 -1434h-344l-462 772l-50 -313l-79 -459h-410z" />
<glyph unicode="O" horiz-adv-x="1738" d="M80 584v21q0 187 66 345q70 168 194.5 280.5t296.5 175t371 62.5q207 0 361 -72.5t240 -212.5t89 -333v-21q0 -150 -41 -282q-44 -141 -127 -247t-198.5 -182t-258.5 -114.5t-303 -38.5q-207 0 -361 72t-240 212.5t-89 334.5zM489 647v-10q0 -143 84 -233q87 -92 236 -93 q203 0 339.5 138t139.5 344v10q0 145 -82 231q-85 88 -239 88q-197 0 -336 -136.5t-142 -338.5z" />
<glyph unicode="P" horiz-adv-x="1458" d="M41 0l252 1434h696q123 0 219 -34.5t155 -95t89.5 -139t30.5 -170.5q0 -123 -45 -232t-129 -192.5t-214 -133t-290 -50.5h-291l-68 -387h-405zM575 729h291q110 6 170 97q39 58 39 119q0 19 -4 38q-15 81 -89 105q-24 8 -54 8h-291z" />
<glyph unicode="Q" horiz-adv-x="1736" d="M78 582q0 267 119 468.5t332 309.5t489 108q312 0 493 -164t181 -452q0 -302 -209 -559l131 -166l-318 -266l-147 184q-178 -78 -397 -78q-311 0 -492.5 163.5t-181.5 451.5zM483 645v-10q0 -146 83 -233q87 -89 237 -89q179 0 305 108t164 298q11 55 11 103 q0 112 -58 190q-83 112 -260 112q-129 0 -238 -62t-175 -172.5t-69 -244.5z" />
<glyph unicode="R" horiz-adv-x="1515" d="M41 0l252 1434h700q118 0 211.5 -34t151 -92.5t87.5 -133.5t30 -160q0 -386 -388 -506l287 -483l-4 -25h-430l-252 465h-158l-82 -465h-405zM582 766h299q95 6 154 91q41 58 41 119q0 15 -3 31q-13 78 -88 97q-22 6 -47 6h-295z" />
<glyph unicode="S" horiz-adv-x="1368" d="M-23 211l269 256q138 -162 391 -162q109 0 179.5 38t70.5 101q0 47 -56 78t-163 41q-90 9 -159.5 23t-137.5 42t-112.5 69t-71.5 104.5t-27 146.5q0 106 39.5 193.5t105.5 146t155 98.5t185 58t199 18q164 0 286.5 -40.5t219.5 -129.5l-246 -252q-108 93 -318 93 q-56 0 -103 -12t-80.5 -41t-33.5 -72q0 -24 11 -41.5t27.5 -28t48 -18t58.5 -11.5t72 -8q80 -9 150.5 -28t137 -52.5t114 -79t76 -111t28.5 -145.5q0 -135 -59 -238.5t-161 -165t-228 -92t-271 -30.5q-200 0 -343 55.5t-253 196.5z" />
<glyph unicode="T" horiz-adv-x="1300" d="M117 1100l59 334h1241l-59 -334h-420l-195 -1100h-403l195 1100h-418z" />
<glyph unicode="U" horiz-adv-x="1603" d="M133 635l139 797h404l-139 -797q-10 -55 -10 -101q1 -88 39 -140q58 -78 186 -79q127 0 213.5 79t113.5 237l142 801h403l-141 -801q-55 -322 -248 -490t-524 -168q-323 0 -479 170q-114 125 -114 331q0 75 15 161z" />
<glyph unicode="V" horiz-adv-x="1533" d="M115 1434h448l88 -430l86 -531l277 531l239 430h449l-850 -1440h-395z" />
<glyph unicode="W" horiz-adv-x="2189" d="M125 1434h442q51 -283 77.5 -467.5t30.5 -238.5t5 -130l412 836h280l125 -836l399 836h443l-758 -1432h-346l-133 686l-367 -686h-327z" />
<glyph unicode="X" horiz-adv-x="1462" d="M-106 0l2 16l606 725l-330 670l4 23h426l205 -455l338 455h436l-4 -23l-571 -711l356 -684l-2 -16h-440l-215 428l-371 -428h-440z" />
<glyph unicode="Y" horiz-adv-x="1480" d="M123 1417l2 17h438l211 -492l395 492h476l-3 -19l-718 -844l-101 -571h-405l100 571z" />
<glyph unicode="Z" horiz-adv-x="1318" d="M-53 0l22 127l813 979h-606l57 328h1149l-18 -115l-799 -969h643l-61 -350h-1200z" />
<glyph unicode="[" horiz-adv-x="761" d="M-29 -322l312 1762h555l-54 -297h-217l-205 -1168h218l-54 -297h-555z" />
<glyph unicode="\" horiz-adv-x="1081" d="M209 1540h352l344 -1698h-354z" />
<glyph unicode="]" horiz-adv-x="768" d="M-90 -322l53 297h217l205 1168h-217l53 297h559l-311 -1762h-559z" />
<glyph unicode="^" horiz-adv-x="1316" d="M96 678l4 27l586 710h217l357 -708l-5 -29h-362l-168 352l-276 -352h-353z" />
<glyph unicode="_" horiz-adv-x="1038" d="M-133 -293l53 299h1010l-53 -299h-1010z" />
<glyph unicode="`" horiz-adv-x="589" d="M244 1419l2 17h395l100 -330l-2 -12h-329z" />
<glyph unicode="a" horiz-adv-x="1331" d="M31 406q0 172 78.5 316t215.5 228t302 84q212 0 274 -131l37 109h354l-178 -1012h-348l2 109q-72 -69 -168 -101q-83 -27 -163 -27q-13 0 -25 1q-184 10 -282.5 125t-98.5 299zM412 463q0 -83 47 -130.5t121 -47.5q106 0 180 79t74 187q0 83 -45.5 130.5t-129.5 47.5 q-101 0 -174 -73.5t-73 -192.5z" />
<glyph unicode="b" horiz-adv-x="1320" d="M4 0l252 1434h377l-88 -508q108 108 299 108q189 0 299 -119.5t110 -312.5q0 -270 -150.5 -437.5t-416.5 -182.5q-13 -1 -26 -1q-79 0 -151 27q-84 31 -134 101l-35 -109h-336zM457 463q0 -73 45.5 -125.5t124.5 -52.5q101 0 173 72t72 192q0 83 -46 131.5t-121 48.5 q-110 0 -179 -82t-69 -184z" />
<glyph unicode="c" horiz-adv-x="1064" d="M31 408q0 125 39 230.5t105 177t153 122t181.5 73.5t192.5 23q112 0 209 -40t160 -117l-237 -218q-59 74 -162 74q-118 0 -192 -79t-74 -185q0 -76 48 -126t138 -50q113 0 203 84l176 -225q-219 -172 -449 -172q-101 0 -187.5 24.5t-155.5 74.5t-108.5 134t-39.5 195z " />
<glyph unicode="d" horiz-adv-x="1320" d="M31 395q0 136 46 255t126 203t190.5 132.5t235.5 48.5q192 0 260 -108l90 508h377l-252 -1434h-336l2 109q-72 -69 -168 -101q-83 -27 -163 -27q-13 0 -25 1q-186 10 -284.5 118t-98.5 295zM414 463q0 -83 46.5 -130.5t121.5 -47.5q104 0 174.5 77t70.5 179q0 80 -43 134 t-125 54q-101 0 -173 -73.5t-72 -192.5z" />
<glyph unicode="e" horiz-adv-x="1210" d="M31 410q0 125 40 230.5t106.5 177t153.5 122t180 73.5t187 23q181 0 301 -76t154 -218q10 -43 10 -93q0 -111 -53 -250h-707q7 -62 69.5 -95.5t133.5 -33.5q151 0 275 82l147 -207q-102 -83 -229 -125.5t-260 -42.5q-109 0 -200 26t-160.5 78t-108.5 136t-39 193z M449 641h366q1 8 1 15q0 64 -72 93q-41 16 -87 16q-43 -1 -89 -15q-94 -30 -119 -109z" />
<glyph unicode="f" horiz-adv-x="878" d="M57 702l52 291h172l8 49q15 86 53 156.5t89 117.5t113.5 79.5t126 46.5t128.5 14q193 0 284 -110l-153 -228q-49 49 -129 49q-48 0 -86 -31.5t-49 -93.5l-9 -49h263l-52 -291h-262l-123 -702h-377l123 702h-172z" />
<glyph unicode="g" horiz-adv-x="1331" d="M-23 -78h375v-7q0 -57 44 -85q46 -31 118 -31q92 0 156.5 53t79.5 142l22 133q-67 -76 -162 -105q-82 -25 -165 -25q-15 0 -29 1q-186 10 -285.5 120t-99.5 290q0 173 78.5 317t215.5 226.5t302 82.5q213 0 272 -131l39 109h354l-178 -1008q-22 -127 -82.5 -225 t-148 -159t-194 -92.5t-228.5 -31.5q-161 0 -274.5 45t-170.5 142q-44 73 -44 171q0 33 5 68zM412 467q0 -82 47.5 -129t122.5 -47q105 0 178.5 76.5t73.5 181.5q0 83 -46 131.5t-129 48.5q-102 0 -174.5 -73t-72.5 -189z" />
<glyph unicode="h" horiz-adv-x="1257" d="M4 0l252 1434h381l-92 -531q66 69 134.5 100t158.5 31q80 0 144 -26t112 -83t62 -147q6 -38 7 -82q0 -61 -12 -135l-98 -561h-375l98 559q3 21 3 39q0 111 -113 111q-62 0 -117.5 -45.5t-71.5 -128.5l-94 -535h-379z" />
<glyph unicode="i" horiz-adv-x="602" d="M4 0h379l176 995h-379zM203 1243q0 101 76.5 160t173.5 59q75 0 127.5 -43t52.5 -119q0 -101 -76 -159t-172 -58q-76 0 -129 42.5t-53 117.5z" />
<glyph unicode="j" horiz-adv-x="600" d="M-322 -412q110 -59 223 -64q12 -1 25 -1q99 0 184 39q95 45 166 146t97 245l184 1042h-377l-184 -1042q-17 -93 -72 -119q-19 -10 -42 -10q-39 0 -85 29zM203 1243q0 101 77 160t173 59q75 0 128.5 -43t53.5 -119q0 -101 -76 -159t-172 -58q-76 0 -130 42.5t-54 117.5z " />
<glyph unicode="k" horiz-adv-x="1163" d="M4 0l252 1434h379l-125 -719l262 297h420l-2 -17l-436 -458l321 -514l-4 -23h-426l-201 352l-61 -352h-379z" />
<glyph unicode="l" horiz-adv-x="593" d="M4 0l254 1436h373l-254 -1436h-373z" />
<glyph unicode="m" horiz-adv-x="1806" d="M4 0l178 1012h318l8 -109q56 63 138 97q77 32 154 32h9q79 -2 140.5 -38.5t86.5 -104.5q142 145 361 145q175 0 260 -116q57 -77 57 -210q0 -66 -14 -145l-98 -563h-377l98 561q5 27 5 49q0 40 -15 64q-23 38 -68 37q-54 0 -100 -38.5t-58 -115.5l-98 -557h-371l99 561 q6 36 6 64q0 37 -11 57q-20 36 -73 35.5t-100.5 -42.5t-61.5 -120l-98 -555h-375z" />
<glyph unicode="n" horiz-adv-x="1273" d="M4 0l178 1012h334l-2 -111q72 69 164 103q86 32 168 32h10q55 -1 101.5 -11t88 -33t69.5 -60q29 -36 47 -88q19 -54 18 -128q0 -68 -13 -155l-98 -561h-377l99 559q5 28 5 51q0 48 -22 76q-34 40 -94 41q-73 0 -133 -50.5t-76 -144.5l-94 -532h-373z" />
<glyph unicode="o" horiz-adv-x="1271" d="M31 414q0 126 39.5 230.5t105.5 175.5t154.5 120t184.5 71.5t198 22.5t189.5 -26.5t156 -79t108 -138t39.5 -194.5q0 -125 -40.5 -229.5t-107.5 -175.5t-156 -120.5t-184.5 -72.5t-193.5 -23q-100 0 -187 26.5t-156.5 78.5t-109.5 138t-40 196zM406 467q0 -78 45.5 -130 t128.5 -52q106 0 178.5 75.5t72.5 180.5q0 79 -45.5 131.5t-128.5 52.5q-110 0 -180.5 -77.5t-70.5 -180.5z" />
<glyph unicode="p" horiz-adv-x="1320" d="M-70 -422l252 1434h336l-2 -109q74 69 170 101q83 27 161 27q13 0 25 -1q186 -10 284.5 -118t98.5 -296q0 -136 -46 -255t-126 -203t-190.5 -132.5t-235.5 -48.5q-191 0 -260 109l-90 -508h-377zM459 471q0 -80 43 -134t125 -54q101 0 173 73.5t72 192.5q0 83 -46 130.5 t-121 47.5q-104 0 -175 -77.5t-71 -178.5z" />
<glyph unicode="q" horiz-adv-x="1323" d="M35 410q0 270 149.5 437.5t415.5 182.5q13 1 26 1q80 0 152 -27q85 -32 133 -101l37 109h336l-254 -1434h-377l90 508q-109 -109 -299 -109q-189 0 -299 119.5t-110 313.5zM416 463q0 -83 46.5 -131.5t121.5 -48.5q110 0 178.5 82t68.5 184q0 74 -44.5 126t-124.5 52 q-101 0 -173.5 -72t-72.5 -192z" />
<glyph unicode="r" horiz-adv-x="968" d="M4 0l178 1012h338l4 -111q50 68 121 101.5t148 33.5t142.5 -28t104.5 -80l-200 -273q-37 35 -73 48.5t-85 13.5q-76 0 -133.5 -48t-75.5 -143l-92 -526h-377z" />
<glyph unicode="s" horiz-adv-x="1050" d="M-47 106l172 275q62 -46 131.5 -72.5t110 -32t96.5 -8.5q112 0 112 56q0 22 -23.5 33t-74.5 16q-56 2 -108 11.5t-102.5 31t-87.5 52.5t-60 79t-23 108q0 81 30.5 146.5t81 108.5t119.5 72t144 41.5t156 12.5q121 0 224 -33t167 -90l-199 -225q-36 26 -108.5 44 t-135.5 18q-98 0 -98 -56q0 -16 15.5 -29t52.5 -14q411 -13 411 -280q0 -83 -30 -151t-81 -113.5t-120.5 -76t-145.5 -44t-159 -13.5q-135 0 -264.5 35.5t-202.5 97.5z" />
<glyph unicode="t" horiz-adv-x="874" d="M51 717l51 289h162l45 251l381 41l-51 -292h227l-51 -289h-229l-60 -332q-2 -12 -2 -23q0 -75 86 -75q56 0 117 35l33 -279q-130 -68 -303 -68q-52 0 -96.5 8.5t-85 27.5t-68 50t-46.5 77q-20 47 -20 111q0 60 13 136l59 332h-162z" />
<glyph unicode="u" horiz-adv-x="1273" d="M58 264q-2 23 -3 48q0 63 15 139l98 561h377l-99 -559q-5 -28 -5 -50q-1 -49 23 -77q34 -40 95 -41q74 0 131.5 47t75.5 141l94 539h373l-178 -1012h-334l4 111q-73 -71 -165 -105q-87 -32 -169 -31h-10q-67 1 -120.5 16t-99 49t-70.5 89t-33 135z" />
<glyph unicode="v" horiz-adv-x="1206" d="M55 1012h400l61 -283l49 -328l162 328l158 283h399l-598 -1018h-375z" />
<glyph unicode="w" horiz-adv-x="1710" d="M66 1012h393l47 -279l29 -284l276 563h227l80 -563l125 286l143 277h396l-551 -1018h-346l-74 383l-207 -383h-350z" />
<glyph unicode="x" horiz-adv-x="1159" d="M-106 0l430 508l-222 485l2 19h406l49 -123l45 -144l96 142l93 125h405l-2 -19l-391 -483l248 -510h-416l-45 113l-68 172l-129 -172l-86 -113h-415z" />
<glyph unicode="y" horiz-adv-x="1271" d="M-2 -78h354v-12q0 -60 38 -84q41 -27 110 -27q85 0 129.5 49t60.5 142l25 137q-58 -72 -122 -100.5t-153 -28.5q-95 0 -166.5 24.5t-115 69.5t-68 108t-25.5 140v10q0 73 13 156l90 506h373l-88 -500q-8 -43 -8 -78q0 -143 130 -143q45 0 80.5 20t57 54t34 68t19.5 73 l90 506h377l-180 -1018q-44 -252 -208 -375t-403 -123q-234 0 -353 107q-96 87 -96 242q0 37 5 77z" />
<glyph unicode="z" horiz-adv-x="1013" d="M-59 0l20 117l508 596h-365l54 299h846l-23 -127l-483 -561h403l-57 -324h-903z" />
<glyph unicode="{" horiz-adv-x="790" d="M25 440l47 262q42 0 71 10t44 28.5t21.5 35.5t10.5 41l49 273q32 184 128.5 280t279.5 96q86 0 188 -18l-45 -250q-36 8 -64 7.5t-57 -10.5t-49 -40.5t-28 -79.5l-52 -287q-8 -48 -13 -69t-19 -54t-39 -55.5t-64 -42.5q37 -23 53.5 -57t14.5 -72t-8 -84l-50 -278 q-6 -36 1 -60t20 -35t39 -14t46 -2t54 6l-49 -270q-113 -20 -193 -20q-341 0 -280 358l51 289q6 18 4 38t-10 36.5t-34 27t-68 10.5z" />
<glyph unicode="|" horiz-adv-x="638" d="M4 -143l297 1679h367l-297 -1679h-367z" />
<glyph unicode="}" horiz-adv-x="790" d="M-84 -299l47 270q32 -5 52 -6t47 2t44 14t32 35t22 60l49 278q14 79 41.5 129t93.5 84q-25 15 -40.5 34.5t-22 35.5t-6.5 43.5t2 43.5t8 52q1 8 2 12l49 287q10 41 2 67t-20 40.5t-37 19.5t-48 3.5t-53 -7.5l43 250q108 18 195 18q183 0 244.5 -96t29.5 -280l-47 -273 q-6 -20 -3.5 -40.5t10.5 -37t34 -27t68 -10.5l-45 -262q-132 0 -150 -112l-51 -289q-31 -170 -130.5 -264t-275.5 -94q-81 0 -186 20z" />
<glyph unicode="~" horiz-adv-x="1271" d="M82 518q46 145 151.5 233t249.5 85q55 -1 116.5 -28.5t106 -55t90 -44t87 6.5t78.5 94l235 -92q-46 -145 -151.5 -233t-249.5 -85q-55 1 -111 28.5t-95.5 55t-81.5 44t-89.5 -6.5t-100.5 -94z" />
<glyph unicode="&#xa2;" horiz-adv-x="1153" d="M63 408q0 121 37 223.5t102.5 175t147.5 122t180 77.5l31 174h330l-29 -160q151 -32 242 -143l-238 -218q-59 74 -161 74q-118 0 -192.5 -79t-74.5 -185q0 -76 48.5 -126t138.5 -50q112 0 202 84l177 -225q-157 -123 -324 -158l-27 -156h-329l28 168q-133 39 -211 139.5 t-78 262.5z" />
<glyph unicode="&#xa3;" horiz-adv-x="1368" d="M-2 0l57 319q91 3 150.5 75t66.5 153h-178l49 278h123q0 6 -1 29.5t-1 30.5q0 253 169.5 411t457.5 158q118 0 208 -28.5t149.5 -86t78.5 -145t-6 -205.5h-358q12 73 -19.5 110.5t-95.5 37.5q-89 0 -141 -59.5t-52 -180.5q0 -54 2 -72h387l-49 -278h-340 q-2 -54 -32 -122.5t-70 -102.5h682l-57 -322h-1180z" />
<glyph unicode="&#xa5;" horiz-adv-x="1638" d="M199 1417l2 17h450l109 -252l100 -287l207 285l203 254h450l-2 -19l-516 -602h164l-45 -260h-328l-16 -84h328l-43 -244h-328l-39 -225h-397l39 225h-322l43 244h322l16 84h-322l45 260h164z" />
<glyph unicode="&#xa8;" horiz-adv-x="1157" d="M301 1255q0 93 68.5 148t156.5 55q68 0 117 -40t49 -109q0 -90 -70 -143.5t-157 -53.5q-69 0 -116.5 38.5t-47.5 104.5zM895 1257q0 92 69.5 146.5t159.5 54.5q67 0 115.5 -40t48.5 -109q0 -89 -70.5 -143t-154.5 -54q-71 0 -119.5 38.5t-48.5 106.5z" />
<glyph unicode="&#xa9;" horiz-adv-x="1685" d="M92 604q0 176 68.5 336t188 278.5t290.5 188.5t365 70q153 0 273.5 -46t198 -129t118 -194.5t40.5 -245.5q0 -182 -63.5 -343t-178 -280t-283.5 -188t-370 -69q-152 0 -275 46.5t-204 129.5t-124.5 197t-43.5 249zM319 631q0 -203 123 -327t334 -124q188 0 333 84 t222.5 233t77.5 339q0 203 -115 321.5t-325 118.5q-137 0 -257.5 -49t-207 -134.5t-136 -205.5t-49.5 -256zM479 657q0 -150 97.5 -236.5t242.5 -86.5q185 0 344 133l-114 139q-79 -67 -177 -67q-74 0 -124 40t-50 113q0 109 71.5 167.5t170.5 58.5q42 0 83.5 -17.5 t66.5 -44.5l159 135q-108 129 -284 129q-129 0 -239 -56.5t-178.5 -164t-68.5 -242.5z" />
<glyph unicode="&#xab;" horiz-adv-x="1144" d="M59 608l365 455h313v2l-364 -457q151 -348 205 -456h-314zM481 608l365 455h315v2l-364 -457l204 -456h-315z" />
<glyph unicode="&#xad;" d="M82 444l53 299h823l-53 -299h-823z" />
<glyph unicode="&#xae;" horiz-adv-x="1685" d="M92 604q0 176 68.5 336t188 278.5t290.5 188.5t365 70q153 0 273.5 -46t198 -129t118 -194.5t40.5 -245.5q0 -182 -63.5 -343t-178 -280t-283.5 -188t-370 -69q-152 0 -275 46.5t-204 129.5t-124.5 197t-43.5 249zM319 631q0 -203 123 -327t334 -124q188 0 333 84 t222.5 233t77.5 339q0 203 -115 321.5t-325 118.5q-137 0 -257.5 -49t-207 -134.5t-136 -205.5t-49.5 -256zM506 348h211l39 221h86l84 -221h227l-123 264q53 14 95.5 47.5t66.5 77t35 92t-1.5 95t-39.5 83.5t-81.5 60t-127.5 23h-340zM782 741l29 166h141q51 0 62 -47 q11 -44 -19 -84q-27 -35 -69 -35h-144z" />
<glyph unicode="&#xb4;" horiz-adv-x="589" d="M205 1094l2 12l215 330h395l-2 -17l-280 -325h-330z" />
<glyph unicode="&#xb8;" horiz-adv-x="745" d="M14 -408l154 136q25 -30 69.5 -46.5t88.5 -7t61 49.5q15 35 -10.5 60.5t-67 27t-84.5 -20.5l-49 43l125 225h242l-58 -108q64 -7 108 -34t62 -67t14 -90t-30 -102q-35 -71 -101.5 -118.5t-142.5 -63.5t-151.5 -10t-137.5 39.5t-92 86.5z" />
<glyph unicode="&#xbb;" horiz-adv-x="1142" d="M-12 158l364 454l-205 457v-2h314l205 -455l-365 -454h-313zM406 158l364 454l-205 457v-2h316l204 -455l-364 -454h-315z" />
<glyph unicode="&#xd3;" horiz-adv-x="1738" d="M80 584q3 -194 89 -334.5t240 -212.5t361 -72q160 0 303 38.5t258.5 114.5t198.5 182t127 247t41 303q-3 193 -89 333t-240 212.5t-361 72.5q-199 0 -371 -62.5t-296.5 -175t-194.5 -280t-66 -366.5zM489 647q3 202 142 338.5t336 136.5q154 0 239 -88.5t82 -240.5 q-3 -206 -139.5 -344t-339.5 -138q-149 0 -236 92.5t-84 243.5zM872 1599l2 13l216 330h395l-2 -17l-281 -326h-330z" />
<glyph unicode="&#xf3;" horiz-adv-x="1271" d="M31 414q0 -110 40 -196t109.5 -138t156.5 -78.5t187 -26.5q98 0 193.5 23t184.5 72.5t156 120.5t107.5 175.5t40.5 229.5q0 109 -39.5 194.5t-108 138t-156 79t-189.5 26.5t-198 -22.5t-184.5 -71.5t-154.5 -120t-105.5 -175.5t-39.5 -230.5zM406 467q0 103 70.5 180.5 t180.5 77.5q83 0 128.5 -52.5t45.5 -131.5q0 -105 -72.5 -180.5t-178.5 -75.5q-83 0 -128.5 52t-45.5 130zM537 1130l2 13l209 317h387l-2 -16l-275 -314h-321z" />
<glyph unicode="&#x104;" horiz-adv-x="1636" d="M-131 0l895 1434h410l389 -1434q-86 10 -146.5 5.5t-99.5 -14.5t-60 -28t-27.5 -35.5t-2.5 -36.5q6 -28 42 -36.5t74.5 -2.5t65.5 17l111 -182q-57 -44 -137 -69t-161 -24.5t-151.5 21.5t-116 73t-47.5 126q-3 97 52 173.5t149 112.5l-33 136h-641l-135 -236h-430z M633 575h366l-102 457z" />
<glyph unicode="&#x105;" horiz-adv-x="1331" d="M31 406q0 172 78.5 316t215.5 228t302 84q212 0 274 -131l37 109h354l-192 -1092q-24 7 -58 7.5t-68 -6t-56.5 -28t-20.5 -53.5q2 -24 35.5 -31t70.5 -1t60 16l86 -158q-65 -45 -154 -63.5t-169 -8.5t-136.5 57t-58.5 124q-3 80 39.5 142t117.5 93l-10 107 q-70 -77 -170 -108.5t-196 -26.5q-184 10 -282.5 125t-98.5 299zM412 463q0 -83 47 -130.5t121 -47.5q106 0 180 79t74 187q0 83 -45.5 130.5t-129.5 47.5q-101 0 -174 -73.5t-73 -192.5z" />
<glyph unicode="&#x106;" horiz-adv-x="1447" d="M72 573q0 -101 22.5 -189t73.5 -166.5t127 -134t189.5 -88t254.5 -32.5q350 0 615 223l-191 267q-85 -73 -183.5 -109.5t-178.5 -36.5q-86 0 -151 28t-101 76t-53 104t-17 120t17.5 129.5t55.5 129t91.5 113t131 79.5t167.5 30q175 0 285 -125l293 246q-196 229 -516 229 q-147 0 -278.5 -36.5t-232 -100.5t-181.5 -150t-133 -186t-79.5 -206.5t-27.5 -213.5zM803 1556l2 13l205 313h374l-2 -16l-266 -310h-313z" />
<glyph unicode="&#x107;" horiz-adv-x="1064" d="M31 408q0 -111 39.5 -195t108.5 -134t155.5 -74.5t187.5 -24.5q230 0 449 172l-176 225q-90 -84 -203 -84q-90 0 -138 50t-48 126q0 106 74 185t192 79q103 0 162 -74l237 218q-63 77 -160 117t-209 40q-98 0 -192.5 -23t-181.5 -73.5t-153 -122t-105 -177t-39 -230.5z M508 1124l2 11l195 299h358l-2 -15l-254 -295h-299z" />
<glyph unicode="&#x118;" horiz-adv-x="1378" d="M41 0l252 1434h1118l-59 -340h-719l-35 -205h678l-59 -330h-678l-39 -217h747l-59 -342q-55 6 -99.5 2t-71 -15t-44.5 -26.5t-20.5 -32t1.5 -32.5q9 -23 44.5 -28t71 2.5t58.5 18.5l111 -172q-61 -45 -147 -74t-171.5 -36t-160.5 18.5t-109 83.5q-40 67 -5 156t120 135 h-725z" />
<glyph unicode="&#x119;" horiz-adv-x="1212" d="M31 410q0 125 40 230.5t106.5 177t153.5 122t180 73.5t187 23q181 0 301 -76.5t154 -218t-43 -342.5h-707q7 -62 69.5 -95.5t133.5 -33.5q151 0 275 82l147 -207q-132 -106 -299 -145q-34 -11 -53.5 -32t-18.5 -48q3 -27 37.5 -38t80 -3t77.5 31l100 -164 q-73 -74 -195.5 -100t-230 7.5t-139.5 117.5q-19 59 5.5 116.5t84.5 92.5q-97 7 -177 36t-141 80.5t-94.5 131.5t-33.5 182zM449 641h366q9 76 -71.5 108t-175 1.5t-119.5 -109.5z" />
<glyph unicode="&#x141;" horiz-adv-x="1280" d="M-20 356l53 297l153 72l125 709h404l-90 -506l221 106l-53 -305l-222 -102l-49 -287h688l-61 -340h-1092l76 428z" />
<glyph unicode="&#x142;" horiz-adv-x="673" d="M-16 375l49 276l129 62l123 694h372l-90 -508l144 64l-47 -269l-144 -65l-110 -629h-373l78 440z" />
<glyph unicode="&#x143;" horiz-adv-x="1638" d="M41 0h410l79 459l50 313l462 -772h344l252 1434h-407l-86 -492q-13 -89 -39 -313l-469 805h-344zM774 1548l2 13l228 321h415l-2 -16l-295 -318h-348z" />
<glyph unicode="&#x144;" horiz-adv-x="1273" d="M4 0h373l94 532q16 94 76 144.5t133 50.5q60 0 93.5 -40.5t17.5 -127.5l-99 -559h377l98 561q14 90 13.5 160t-19 122.5t-46.5 89t-69.5 59.5t-88 33t-101.5 11q-87 2 -178.5 -31.5t-163.5 -103.5l2 111h-334zM551 1137l2 12l203 309h372l-2 -14l-264 -307h-311z" />
<glyph unicode="&#x15a;" horiz-adv-x="1368" d="M-23 211q110 -141 253 -196.5t343 -55.5q145 0 271 30.5t228 92t161 165t59 238.5q0 80 -28.5 145.5t-76 111t-114 79t-137 52.5t-150.5 28q-45 4 -72 8t-58.5 11.5t-48 18t-27.5 28t-11 41.5q0 43 33.5 72t80.5 41t103 12q210 0 318 -93l246 252q-97 89 -219.5 129.5 t-286.5 40.5q-103 0 -199 -18t-185 -58t-155 -98.5t-105.5 -146t-39.5 -193.5q0 -83 27 -146.5t71.5 -104.5t112.5 -69t137.5 -42t159.5 -23q107 -10 163 -41t56 -78q0 -63 -70.5 -101t-179.5 -38q-253 0 -391 162zM651 1565l2 12l215 326h392l-3 -17l-278 -321h-328z" />
<glyph unicode="&#x15b;" horiz-adv-x="1050" d="M-47 106l172 275q62 -46 131.5 -72.5t110 -32t96.5 -8.5q112 0 112 56q0 22 -23.5 33t-74.5 16q-56 2 -108 11.5t-102.5 31t-87.5 52.5t-60 79t-23 108q0 81 30.5 146.5t81 108.5t119.5 72t144 41.5t156 12.5q121 0 224 -33t167 -90l-199 -225q-36 26 -108.5 44 t-135.5 18q-98 0 -98 -56q0 -16 15.5 -29t52.5 -14q411 -13 411 -280q0 -83 -30 -151t-81 -113.5t-120.5 -76t-145.5 -44t-159 -13.5q-135 0 -264.5 35.5t-202.5 97.5zM436 1139l2 10l199 303h364l-2 -14l-260 -299h-303z" />
<glyph unicode="&#x179;" horiz-adv-x="1318" d="M-53 0h1200l61 350h-643l799 969l18 115h-1149l-57 -328h606l-813 -979zM649 1559l2 12l215 330h396l-2 -17l-281 -325h-330z" />
<glyph unicode="&#x17a;" horiz-adv-x="1013" d="M-59 0h903l57 324h-403l483 561l23 127h-846l-54 -299h365l-508 -596zM449 1137l2 10l200 287h367l-2 -15l-260 -282h-307z" />
<glyph unicode="&#x17b;" horiz-adv-x="1318" d="M-53 0h1200l61 350h-643l799 969l18 115h-1149l-57 -328h606l-813 -979zM666 1710q0 68 39.5 119t97 74.5t121.5 23.5q78 0 134 -43t56 -117q0 -99 -79 -156t-179 -57q-80 0 -135 41.5t-55 114.5z" />
<glyph unicode="&#x17c;" horiz-adv-x="1013" d="M-59 0h903l57 324h-403l483 561l23 127h-846l-54 -299h365l-508 -596zM451 1270q0 86 69 136t156 50q69 0 117.5 -36.5t48.5 -100.5q0 -85 -70 -135.5t-156 -50.5q-69 0 -117 37t-48 100z" />
<glyph unicode="&#x2c6;" horiz-adv-x="923" d="M205 1108l2 16l368 322h234l254 -322l-2 -16h-324l-88 96l-121 -96h-323z" />
<glyph unicode="&#x2da;" horiz-adv-x="874" d="M319 1190q33 119 138 191q96 65 221 65q168 0 239 -108q58 -89 27 -206q-33 -120 -139 -192q-97 -66 -227 -66q-165 0 -234 108q-58 90 -25 208zM552 1112q19 -31 66 -31q62 0 91 51q24 43 2 78q-18 31 -64 31q-64 0 -93 -51q-25 -43 -2 -78z" />
<glyph unicode="&#x2dc;" horiz-adv-x="997" d="M285 1272q37 68 95.5 114.5t122.5 64t130 11t119 -38.5q44 -26 79.5 -33.5t73 8.5t72.5 60l176 -129q-79 -142 -204 -186.5t-261 26.5q-147 88 -219 -28z" />
<glyph unicode="&#x2000;" horiz-adv-x="971" />
<glyph unicode="&#x2001;" horiz-adv-x="1942" />
<glyph unicode="&#x2002;" horiz-adv-x="971" />
<glyph unicode="&#x2003;" horiz-adv-x="1942" />
<glyph unicode="&#x2004;" horiz-adv-x="647" />
<glyph unicode="&#x2005;" horiz-adv-x="485" />
<glyph unicode="&#x2006;" horiz-adv-x="323" />
<glyph unicode="&#x2007;" horiz-adv-x="323" />
<glyph unicode="&#x2008;" horiz-adv-x="242" />
<glyph unicode="&#x2009;" horiz-adv-x="388" />
<glyph unicode="&#x200a;" horiz-adv-x="107" />
<glyph unicode="&#x2010;" d="M82 444l53 299h823l-53 -299h-823z" />
<glyph unicode="&#x2011;" d="M82 444l53 299h823l-53 -299h-823z" />
<glyph unicode="&#x2012;" d="M82 444l53 299h823l-53 -299h-823z" />
<glyph unicode="&#x2013;" horiz-adv-x="1247" d="M80 430l53 301h1026l-53 -301h-1026z" />
<glyph unicode="&#x2014;" horiz-adv-x="1435" d="M84 436l53 301h1206l-53 -301h-1206z" />
<glyph unicode="&#x2018;" horiz-adv-x="608" d="M123 905l278 531h283l-199 -531h-362z" />
<glyph unicode="&#x2019;" horiz-adv-x="595" d="M137 903l199 531h362l-278 -531h-283z" />
<glyph unicode="&#x201a;" horiz-adv-x="618" d="M-123 -317l199 524h368l-270 -524h-297z" />
<glyph unicode="&#x201c;" horiz-adv-x="1038" d="M125 915l309 519h275l-236 -519h-348zM565 915l271 519h276l-192 -519h-355z" />
<glyph unicode="&#x201d;" horiz-adv-x="1019" d="M143 915l193 519h354l-270 -519h-277zM547 915l235 519h348l-309 -519h-274z" />
<glyph unicode="&#x201e;" horiz-adv-x="1062" d="M-123 -317l199 524h360l-262 -524h-297zM330 -317l205 524h354l-266 -524h-293z" />
<glyph unicode="&#x2026;" horiz-adv-x="1683" d="M26 65q-35 70 2 153q38 86 127 120q43 16 93 16q117 0 159 -81q35 -69 -2 -152q-38 -85 -127 -119q-44 -18 -96 -18q-115 0 -156 81zM579 65q-35 70 2 153q38 86 127 120q43 16 93 16q117 0 159 -81q35 -69 -2 -152q-38 -85 -127 -119q-44 -18 -96 -18q-115 0 -156 81z M1132 65q-35 70 2 153q38 86 127 120q43 16 93 16q117 0 159 -81q35 -69 -2 -152q-38 -85 -127 -119q-45 -18 -96 -18q-115 0 -156 81z" />
<glyph unicode="&#x202f;" horiz-adv-x="388" />
<glyph unicode="&#x2039;" horiz-adv-x="806" d="M57 598l367 459l397 2l-366 -459q135 -311 207 -461h-398z" />
<glyph unicode="&#x203a;" horiz-adv-x="802" d="M-16 152l362 454l-201 459h398l202 -457l-364 -456h-397z" />
<glyph unicode="&#x205f;" horiz-adv-x="485" />
<glyph unicode="&#x20ac;" horiz-adv-x="1320" d="M53 408l43 247h113q3 17 7 41t6.5 40.5t4.5 21.5h-112l43 239h170q78 150 208 254.5t274 149t291.5 43t270.5 -52.5l-145 -277q-73 35 -157.5 38t-172 -36t-147.5 -119h370l-102 -239h-408q-12 -54 -18 -103h385l-96 -247h-246q39 -66 121.5 -99t172.5 -31.5t171 29.5 l47 -295q-144 -43 -295 -43q-277 0 -440 115t-199 324h-160z" />
<glyph unicode="&#x2122;" horiz-adv-x="1730" d="M225 1212l39 222h621l-39 -222h-189l-71 -401h-248l72 401h-185zM862 809l111 625h241l111 -179l168 179h244l-111 -625h-246l25 141l35 148l-146 -162h-57l-88 164l-19 -150l-24 -141h-244z" />
<glyph unicode="&#x25fc;" horiz-adv-x="1013" d="M0 0v1014h1014v-1014h-1014z" />
</font>
</defs>
</svg>
